<svg xmlns="http://www.w3.org/2000/svg" viewBox="0 0 512 512" width="512" height="512"><defs><linearGradient id="g" x1="0" y1="0" x2="1" y2="1"><stop offset="0" stop-color="#4338ca"/><stop offset="0.55" stop-color="#7c3aed"/><stop offset="1" stop-color="#ec4899"/></linearGradient><radialGradient id="s" cx="0.25" cy="0.15" r="0.8"><stop offset="0" stop-color="#ffffff" stop-opacity="0.28"/><stop offset="1" stop-color="#ffffff" stop-opacity="0"/></radialGradient></defs>
<rect width="512" height="512" rx="112" fill="url(#g)"/><rect width="512" height="512" rx="112" fill="url(#s)"/>
<g>
  <!-- halaman kiri -->
  <path d="M256 204 C226 180 176 172 128 184 L128 330 C176 318 226 326 256 350 Z" fill="#ffffff"/>
  <!-- halaman kanan -->
  <path d="M256 204 C286 180 336 172 384 184 L384 330 C336 318 286 326 256 350 Z" fill="#e0e7ff"/>
  <!-- halaman yang sedang dibalik -->
  <path d="M256 204 C292 150 352 138 398 154 C358 160 318 182 292 226 C280 246 268 262 256 270 Z" fill="#ffffff" opacity="0.96"/>
  <path d="M256 204 C292 150 352 138 398 154" fill="none" stroke="#c7d2fe" stroke-width="5" stroke-linecap="round"/>
  <!-- garis teks halaman kiri -->
  <rect x="150" y="214" width="76" height="9" rx="4.5" fill="#a5b4fc"/>
  <rect x="150" y="240" width="76" height="9" rx="4.5" fill="#c7d2fe"/>
  <rect x="150" y="266" width="58" height="9" rx="4.5" fill="#c7d2fe"/>
  <!-- penanda buku -->
  <path d="M322 262 L322 346 L340 330 L358 346 L358 262 Z" fill="#f472b6"/>
  <!-- tulang buku -->
  <path d="M256 204 L256 350" stroke="#818cf8" stroke-width="4" stroke-linecap="round"/>
  <!-- alas buku -->
  <path d="M120 342 C172 330 226 338 256 362 C286 338 340 330 392 342" fill="none" stroke="#ffffff" stroke-opacity="0.55" stroke-width="7" stroke-linecap="round"/>
</g>
</svg>
